<svg width="40" height="40" viewBox="0 0 40 40" fill="none" xmlns="http://www.w3.org/2000/svg">
<path fill-rule="evenodd" clip-rule="evenodd" 
      d="M15.2 15.464C15.2 14.392 15.36 13.4 15.664 12.504C15.976 11.6 16.384 10.856 16.912 10.256C17.3932 9.69035 17.9537 9.19725 18.576 8.792C19.16 8.416 19.776 8.152 20.4 8L21.032 11.008C20.328 11.256 19.72 11.744 19.216 12.48C18.6616 13.373 18.3936 14.4143 18.448 15.464C18.448 16.928 18.832 18.08 19.608 18.92C19.9534 19.3216 20.382 19.6434 20.8641 19.863C21.3462 20.0827 21.8703 20.1949 22.4 20.192V23.2C20.32 23.2 18.608 22.472 17.24 21.008C15.8602 19.4985 15.1277 17.5078 15.2 15.464ZM22.4 11.008V8C24.464 8 26.176 8.728 27.544 10.192C28.9319 11.6976 29.6706 13.6895 29.6 15.736C29.6 16.6 29.496 17.416 29.296 18.168C29.088 18.92 28.816 19.568 28.48 20.112C27.8341 21.1457 26.9368 21.9989 25.872 22.592C25.392 22.856 24.888 23.056 24.36 23.2L23.76 20.216C24.072 20.096 24.368 19.928 24.656 19.704C25.3693 19.1587 25.8837 18.3942 26.12 17.528C26.28 16.992 26.36 16.392 26.36 15.736C26.36 14.28 25.968 13.136 25.192 12.288C24.847 11.8853 24.4186 11.5623 23.9366 11.3413C23.4546 11.1203 22.9303 11.0066 22.4 11.008ZM18.4 24.12L13.648 32.8L11.2 31.024L15.96 22.4L18.4 24.12Z" fill="#a997c8"/>
</svg>
