<svg xmlns="http://www.w3.org/2000/svg" viewBox="0 140 1122.5 793.7"><g clip-path="url(#clipPath3835)" transform="matrix(1.33333 0 0 -1.33333 0 793.7)"><path d="M810 458.4h-46.5l7.5-224.8h31.7zm-61.6-259.1v197.1s0 35.9-35.9 35.9h-26.4s-35.8 0-35.8-35.9V199.3s0-35.9 35.8-35.9h26.4s35.9 0 35.9 35.9m-42.3.5c0-1.7-1.1-2.6-3.3-2.6h-7.7c-2.2 0-3.3.9-3.3 2.6v196c0 1.8 1.1 2.7 3.3 2.7h7.7c2.2 0 3.3-.9 3.3-2.7zm-113.2-36.4h41.7V407h-45l-17.2-140.8L556.7 407h-48.8V163.4h41v98.4l15.3-98.4h14.5l14.2 98.4zm-190.9 0h91.3v33.8h-49.6v60.6h35.6v33.8h-35.6V348h49.6v33.7H402zM362 354.2l25.8 27.4h-37.5l-7.5-12-7.5 12h-37.4l25.8-27.4zm-64.7-39.8h39.4L296.2 192v-28.7h90.2v33.8h-40l40 122.2v28.7h-89.2zm-16.4-114.8v96s0 35.8-35.9 35.8h-26.4s-35.8 0-35.8-35.8v-96s0-35.8 35.8-35.8H245s35.9 0 35.9 35.8m-42 .2c0-1.7-1-2.6-3.2-2.6H228c-2.2 0-3.2.9-3.2 2.6v95.3c0 1.8 1 2.7 3.2 2.7h7.7c2.2 0 3.3-1 3.3-2.7zm-113.1-36.4h41.7v136h-45l-17.2-59.1-15.7 59.1H40.7v-136h41v55l15.3-55h14.5l14.2 55zm683.2 51.3h-44.4v-51.3H809zM41.5 102.3H53v11h4c11.6 0 17.3 5.8 17.3 14.2C74.4 135 70 141 58 141H41.5zM53 122.5v9.4h3.7c4.6 0 5.4-2.1 5.4-4.6 0-3.5-1.7-4.8-5.2-4.8zm49-20.8c13.8 0 21.6 8.7 21.6 20 0 14.8-9.5 20-21.6 20-13.4 0-21.2-8.7-21.2-20.4 0-12.8 9-19.6 21.2-19.6m0 9.2c-6.2 0-8.9 3.5-8.9 10.4 0 8.4 3 11.1 8.9 11.1 6.3 0 9.3-2.3 9.3-10.7 0-8-3-10.8-9.3-10.8m31.7-8.6H162v9.3h-16.4V141h-11.7zm48.3 38.8h-11.6v-38.8h11.6zm21-38.8h11.6v29.6H227v9.2h-36.1V132h12.3zm44.3 38.8h-11.7v-38.8h11.7zm30.6-39.4c5 0 10.5 1 15.8 3.7l-3.1 9.4c-3.6-2.2-7.8-4-11.6-4-6 0-9.3 3.8-9.3 11s4 10.6 9 10.6c3.3 0 7.2-1.2 10.9-3.8l3.9 9.5a30.3 30.3 0 01-14.2 3.5c-12.5 0-21.9-7.4-21.9-20 0-12.8 7.2-20 20.5-20m-2.4 41.3h5.1l10.1 9.8-5 4.8-7.7-6.3-7.4 6.3-5.3-4.9zm51.4-40.6h14l-14.5 20.5 13.3 18.3h-13l-9.3-14-2.3-.8v14.8h-11.7v-38.8h11.7V117l1.5.3zm29 0l2.5 7.6h12.7l2.7-7.6h12.5L371.3 141h-12.4l-15-38.8zm11.1 19.6l1.2-4h-7.2l1.2 4.1 2.4 8zm47-19.6h11.6v11h4c11.5 0 17.3 5.8 17.3 14.2 0 7.6-4.5 13.6-16.4 13.6H414zm11.6 20.2v9.4h3.7c4.6 0 5.4-2.1 5.4-4.6 0-3.5-1.7-4.8-5.2-4.8zm30.5-20.2h28v9.3h-16.4V141h-11.6zm45.7 0l2.4 7.6H517l2.7-7.6h12.5l-15 38.8h-12.5l-15-38.8zm11 19.6l1.3-4h-7.3l1.2 4.1 2.4 8zm32.7-19.6h11.6v29.6h12.2v9.2h-36V132h12.2zm32.6 0h11.6v13.3h14.8v9.1h-14.8v7.2h17v9.2h-28.6zm57-.6c13.7 0 21.5 8.7 21.5 20 0 14.8-9.4 20-21.6 20-13.4 0-21.2-8.7-21.2-20.4 0-12.8 9-19.6 21.3-19.6m0 9.2c-6.3 0-9 3.5-9 10.4 0 8.4 3 11.1 8.9 11.1 6.3 0 9.3-2.3 9.3-10.7 0-8-3-10.8-9.2-10.8m31.6-8.6h11.7V114h4l7-11.7H703l-9.6 14.2c4 2.4 6 6.4 6 11.4 0 7.6-4.4 13.2-16.4 13.2h-16.2zm11.7 20v9.6h3.3c4.2 0 5.4-1.7 5.4-4.4 0-3.5-2-5.1-5.2-5.1zm33.5-20h10v22l4-11.7 3.9-10.3H742l3.7 10.5 3 9.8v-20.3h11v38.9H747L742 128l-5.7-16.2-5.5 15.8-5.2 13.4H712zm67.6 0l2.4 7.6h12.7l2.7-7.6h12.5L794.8 141h-12.4l-15-38.8zm11 19.6l1.2-4h-7.2l1.2 4.1 2.4 8z" fill="#b3db18"/></g></svg>