<svg xmlns="http://www.w3.org/2000/svg" viewBox="0 0 393 71">
    <title>otvoreni akti</title>
    <desc id="catDesc">Logotype "otvoreni akti" with a magnifying glass instead of the letter "o"</desc>
    <path fill="#fff" d="M320.46 0v48.06h7.75V0h-7.75zm-69.337 1.217a4.55 4.55 0 00-2.943 1.152 3.9 3.9 0 00-1.25 3 3.76 3.76 0 001.22 2.932 4.64 4.64 0 003.25 1.11 4.43 4.43 0 003.12-1.132c.82-.75 1.22-1.718 1.22-2.898a4 4 0 00-1.19-3c-.79-.78-1.85-1.16-3.15-1.16a4.55 4.55 0 00-.277-.004zm136.777 0a4.55 4.55 0 00-2.94 1.164 3.9 3.9 0 00-1.25 2.99 3.76 3.76 0 001.22 2.93 4.64 4.64 0 003.25 1.11 4.43 4.43 0 003.12-1.132c.82-.75 1.23-1.718 1.23-2.898a4 4 0 00-1.2-3c-.79-.78-1.84-1.16-3.15-1.16a4.55 4.55 0 00-.28-.004zM53.72 7.689l-.56 8.372h-5.63v6.468H71.9v-6.468H60.66V7.689h-6.94zm304.52 0l-.56 8.372h-5.63v6.468h24.38v-6.468h-11.25V7.689h-6.94zm-16.04 7.15l-10.8 12.882v8.44l11.28 13.31 7.1-3.532-13.2-14.128 11.32-13.25-5.7-3.721zm-47.509.124a33.3 33.3 0 00-8.63 1.168h-.01l.69 6.398 1.15-.279a38.6 38.6 0 016.66-.75c4.88 0 7.38 2.01 7.5 6.03v14.06l5.69 7.57 5.958-3.47-3.898-7.1V28.22c0-4.07-1.281-7.29-3.881-9.67-2.58-2.38-6.04-3.58-10.4-3.58a33.3 33.3 0 00-.829-.007zm-68.4.006a12.8 12.8 0 00-.3.002 6.78 6.78 0 00-1.86.279 12.2 12.2 0 00-1.701.61 20.07 20.07 0 00-2.39 1.41l-.37.26h.01l1.52 5.69.6-.28c.38-.17.89-.34 1.55-.52s1.24-.26 1.77-.26c1.64 0 2.8.28 3.5.86.68.57 1.03 1.6 1.03 3.1v21.94h7.75V25.22a10 10 0 00-1.04-4.6 8.75 8.75 0 00-2.71-3.23 12.8 12.8 0 00-7.359-2.421zm-200.57.002V21.63a8.81 8.81 0 016.549 2.818C34.09 26.32 35 28.87 35 32.07c0 1.47-.19 2.78-.56 3.97A8.85 8.85 0 0131 40.85a8.88 8.88 0 01-2.09 1.11l1.4 6.6a16.18 16.18 0 009.66-6.82 15.54 15.54 0 001.9-4.3c.48-1.67.72-3.46.72-5.38 0-4.94-1.6-9.02-4.81-12.25-3.21-3.23-7.23-4.84-12.06-4.84zm57.029 0l-7.615 1.808L87.369 48.07h7.281l-11.9-33.1zm-7.615 1.808l-.004-.01v.01h.004zm25.015-1.808l-7.22 20.34 4.6 7.82 10.3-26.291-7.68-1.87zm27.15 0v6.648a8.81 8.81 0 016.55 2.82c1.83 1.87 2.73 4.422 2.73 7.622 0 1.47-.18 2.778-.56 3.968a8.85 8.85 0 01-1.5 2.942c-.63.77-1.27 1.389-1.93 1.869a8.88 8.88 0 01-2.1 1.12l1.41 6.6a16.18 16.18 0 009.66-6.82 15.54 15.54 0 001.9-4.3c.48-1.67.72-3.46.72-5.38 0-4.94-1.61-9.02-4.82-12.25-3.2-3.23-7.22-4.84-12.06-4.84zm27.69 0l-5.88 3.718h.01l3.9 6.84v22.532h7.72V22.529l-5.75-7.558zm16.25 0c-1.13 0-2.22.099-3.3.299a13.92 13.92 0 00-4.54 1.5c-.61.32-1 .54-1.17.65-.18.12-.31.22-.4.3l2.38 5.62c1.98-.78 4.33-1.18 7.03-1.18v-7.19zm17.281 0a14.37 14.37 0 00-10.261 4.42 15.15 15.15 0 00-3.3 5.558c-.82 2.28-1.22 4.84-1.22 7.67v.012c0 4.97 1.33 8.97 3.98 12 2.66 3.02 6.38 4.53 11.18 4.53a30.36 30.36 0 007.67-.95 24.87 24.87 0 003.94-1.5l.51-.3-1.22-5.731-1.44.5a32.7 32.7 0 01-8.5 1.44c-2.96 0-5.14-.78-6.56-2.35-1.41-1.58-2.13-4.12-2.13-7.65 0-2.25.2-4.15.6-5.71.39-1.57.96-2.75 1.69-3.57.73-.81 1.51-1.38 2.35-1.71.85-.34 1.82-.5 2.9-.5 3.82 0 5.72 2.32 5.72 6.96v.38l-10.32 1.62.75 4.97 15.94-1.72.16-.65a20.9 20.9 0 00.33-1.99c.11-.88.17-1.77.17-2.67 0-4.12-1.12-7.33-3.36-9.62-2.24-2.3-5.37-3.44-9.39-3.44a14.37 14.37 0 00-.189 0zm-167.3.59a14.49 14.49 0 00-4.301 1.75 17.81 17.81 0 00-3.9 3.24c-1.22 1.32-2.2 2.969-2.92 4.969-.74 1.99-1.1 4.17-1.1 6.54 0 4.94 1.6 9.02 4.8 12.25 3.19 3.23 7.23 4.85 12.11 4.85V42.5c-2.57 0-4.75-.93-6.57-2.8-1.81-1.86-2.72-4.41-2.72-7.63 0-2.78.6-4.98 1.8-6.6a8.66 8.66 0 014.27-3.25l-1.47-6.66zm101.58 0a14.49 14.49 0 00-4.301 1.75 17.81 17.81 0 00-3.9 3.24c-1.22 1.32-2.19 2.969-2.92 4.969-.73 1.99-1.1 4.17-1.1 6.54h.01c0 4.94 1.6 9.02 4.8 12.25 3.19 3.23 7.22 4.85 12.1 4.85V42.5c-2.56 0-4.75-.93-6.56-2.8-1.82-1.86-2.72-4.41-2.72-7.63 0-2.78.6-4.98 1.8-6.6a8.66 8.66 0 014.26-3.25l-1.47-6.66zm86.568.5v32h7.75v-32h-7.75zm174.842 0v32h7.809v-32h-7.81zm-136.781.01v32h7.81v-32h-7.81zM52.91 25.72v12.5c0 4.02.61 6.848 1.82 8.478 1.22 1.64 3.45 2.461 6.68 2.461 1.25 0 2.8-.22 4.67-.64 1.86-.44 3.18-.78 3.95-1.04l1.88-.64-.78-5.68-1.38.28a64.6 64.6 0 01-3.34.5c-1.32.16-2.36.25-3.16.25-1.06 0-1.76-.31-2.09-.94-.34-.63-.5-1.93-.5-3.93v-11.6h-7.75zm304.52 0v12.5c0 4.02.61 6.848 1.83 8.478 1.21 1.64 3.44 2.461 6.67 2.461 1.25 0 2.8-.22 4.67-.64 1.86-.44 3.18-.78 3.95-1.04l1.88-.64-.78-5.68-1.38.28a64.6 64.6 0 01-3.34.5c-1.32.16-2.37.25-3.15.25-1.07 0-1.77-.31-2.1-.94-.34-.63-.5-1.93-.5-3.93v-11.6h-7.75zm-58.6 2.558l-11.12 1.471-.56.31c-.36.21-.79.55-1.3 1.03a9.95 9.95 0 00-3.39 7.57c0 3.1.96 5.63 2.87 7.57 1.92 1.95 4.76 2.93 8.54 2.93 1.33 0 2.65-.23 3.95-.68 1.3-.44 2.16-.8 2.56-1.07.41-.27.72-.5.95-.69l-2.5-5.13-.56.29a9.46 9.46 0 01-1.7.5c-.77.16-1.52.24-2.27.24-3.1 0-4.65-1.51-4.65-4.53 0-1.18.33-2.28 1-3.28l8.18-1.53v-5zM12.01 48L.76 66.94l5.8 3.9 11.22-19.07h.01L12.01 48zm14.408 7.396v7.94c0 .953.173 1.773.518 2.457.355.673.83 1.188 1.43 1.547.598.359 1.272.539 2.023.539.588 0 1.126-.101 1.613-.303a3.573 3.573 0 001.264-.926c.355-.403.63-.886.822-1.447.203-.572.303-1.211.303-1.918 0-.897-.168-1.67-.502-2.32-.325-.662-.77-1.173-1.338-1.531-.568-.36-1.214-.54-1.934-.54-.395 0-.775.073-1.14.22a3.255 3.255 0 00-.96.605 3.181 3.181 0 00-.67.91h-.03v-5.233h-1.399zm23.68 0v12.28h1.4v-12.28h-1.4zm73.306 0v12.28h1.4v-12.28h-1.4zm75.692 0v5.233h-.03a3.05 3.05 0 00-.685-.91 3.013 3.013 0 00-.96-.606 2.93 2.93 0 00-1.124-.218c-.72 0-1.366.18-1.934.539-.568.358-1.018.87-1.353 1.53-.325.651-.489 1.424-.489 2.321 0 .707.097 1.346.29 1.918.202.56.482 1.044.837 1.447.356.404.777.713 1.264.926a4.164 4.164 0 001.611.303c.751 0 1.427-.18 2.026-.54.598-.358 1.069-.873 1.414-1.546.355-.684.533-1.504.533-2.457v-7.94h-1.4zm60.804 0v12.28h1.4v-12.28h-1.4zm23.266 0v12.28h1.4v-3.65h2.207c.437 0 .822.113 1.157.337.334.213.592.505.775.875.193.37.29.791.29 1.262v1.176h1.415V66.5c0-.852-.207-1.599-.623-2.238a3.054 3.054 0 00-1.705-1.328l2.207-3.836h-1.553l-2.039 3.6h-2.13v-7.302h-1.401zm39.633 0v12.28h1.398v-4.979c0-.516.108-.958.32-1.328a2.28 2.28 0 01.852-.842 2.164 2.164 0 011.111-.302c.396 0 .767.1 1.112.302.355.202.638.494.851.875.213.37.32.813.32 1.328v4.946h1.401v-4.961c0-.763-.144-1.43-.428-2.002a3.19 3.19 0 00-1.185-1.33c-.507-.325-1.107-.488-1.797-.488-.487 0-.958.107-1.414.32a2.936 2.936 0 00-1.143.992v-4.81H322.8zm30.043 0v12.28h1.398v-3.65h2.207c.437 0 .822.113 1.157.337.334.213.594.505.777.875.193.37.289.791.289 1.262v1.176h1.414V66.5c0-.852-.207-1.599-.623-2.238a3.054 3.054 0 00-1.705-1.328l2.207-3.836h-1.553l-2.039 3.6h-2.13v-7.302h-1.4zm-296.23.235c-.254 0-.478.107-.67.32a1.04 1.04 0 00-.274.723c0 .28.09.527.273.74a.9.9 0 00.67.303c.254 0 .472-.101.655-.303.192-.213.289-.46.289-.74 0-.28-.097-.521-.29-.723-.182-.213-.4-.32-.654-.32zm61.695.017c-.254 0-.478.108-.67.32a1.04 1.04 0 00-.274.723c0 .28.091.528.274.74a.9.9 0 00.67.303c.253 0 .471-.1.654-.302.193-.213.289-.46.289-.74 0-.281-.096-.521-.29-.723-.182-.213-.4-.32-.653-.32zm11.627 0c-.254 0-.478.108-.67.32a1.04 1.04 0 00-.274.723c0 .28.091.528.274.74a.9.9 0 00.67.303c.253 0 .471-.1.654-.302.193-.213.289-.46.289-.74 0-.281-.096-.521-.29-.723-.182-.213-.4-.32-.653-.32zm148.134 0c-.253 0-.477.108-.67.32a1.04 1.04 0 00-.273.723c0 .28.09.528.273.74a.9.9 0 00.67.303c.254 0 .472-.1.655-.302.192-.213.289-.46.289-.74 0-.281-.097-.521-.29-.723-.182-.213-.4-.32-.654-.32zm39.631 0c-.253 0-.477.108-.67.32a1.04 1.04 0 00-.273.723c0 .28.09.528.273.74a.9.9 0 00.67.303c.254 0 .472-.1.655-.302.192-.213.289-.46.289-.74 0-.281-.097-.521-.29-.723-.182-.213-.4-.32-.654-.32zm-209.398.252l1.4 2.07h1.582l1.4-2.07h-1.187l-1.004 1.43-1.004-1.43h-1.187zm132.51 0l1.4 2.07h1.582l1.4-2.07h-1.187l-1.004 1.43-1.004-1.43h-1.187zM80.42 56.943v2.155h-1.339v1.328h1.34v4.812c0 .752.192 1.346.578 1.783.396.438.939.655 1.629.655h1.826v-1.328h-1.568c-.335 0-.599-.108-.791-.32-.183-.225-.274-.521-.274-.891v-4.711h2.662v-1.328h-2.662v-2.155h-1.4zm296.317 0v2.155H375.4v1.328h1.338v4.812c0 .752.193 1.346.578 1.783.396.438.94.655 1.63.655h1.825v-1.328h-1.566c-.335 0-.6-.108-.793-.32-.183-.225-.273-.521-.273-.891v-4.711h2.664v-1.328h-2.664v-2.155h-1.4zM42.021 58.895c-.79 0-1.49.201-2.1.605a4.155 4.155 0 00-1.444 1.615c-.356.673-.534 1.43-.534 2.272 0 .84.178 1.603.534 2.287a4.318 4.318 0 001.445 1.615c.609.393 1.308.59 2.1.59.79 0 1.49-.197 2.1-.59a4.159 4.159 0 001.446-1.615c.355-.684.532-1.446.532-2.287s-.177-1.599-.532-2.272a4.008 4.008 0 00-1.447-1.615c-.609-.404-1.308-.605-2.1-.605zm23.356 0c-.852 0-1.583.201-2.191.605a3.831 3.831 0 00-1.4 1.615c-.325.673-.487 1.43-.487 2.272 0 .83.147 1.587.441 2.271.294.684.716 1.227 1.264 1.631.548.393 1.196.59 1.947.59.518 0 .97-.097 1.356-.287.385-.19.703-.431.957-.723.263-.303.472-.616.625-.941h.029v1.748h1.416v-4.34c0-.83-.162-1.581-.486-2.254a3.822 3.822 0 00-1.356-1.598c-.588-.392-1.293-.59-2.115-.59zm33.865 0c-.852 0-1.583.201-2.191.605a3.827 3.827 0 00-1.399 1.615c-.324.673-.488 1.43-.488 2.272 0 .83.147 1.587.441 2.271.295.684.716 1.227 1.264 1.631.548.393 1.197.59 1.947.59.518 0 .97-.097 1.356-.287.385-.19.703-.431.957-.723.264-.303.473-.616.625-.941h.03v1.748h1.415v-4.34c0-.83-.161-1.581-.486-2.254a3.822 3.822 0 00-1.356-1.598c-.588-.392-1.293-.59-2.115-.59zm47.9 0c-.852 0-1.582.201-2.19.605a3.831 3.831 0 00-1.401 1.615c-.325.673-.487 1.43-.487 2.272 0 .83.148 1.587.442 2.271.294.684.716 1.227 1.264 1.631.547.393 1.196.59 1.947.59.517 0 .968-.097 1.353-.287.386-.19.706-.431.96-.723.263-.303.472-.616.624-.941h.03v1.748h1.416v-4.34c0-.83-.162-1.581-.487-2.254a3.822 3.822 0 00-1.355-1.598c-.589-.392-1.294-.59-2.115-.59zm18.165 0c-.842 0-1.562.197-2.16.59a3.822 3.822 0 00-1.356 1.597c-.314.673-.47 1.43-.47 2.272 0 .863.156 1.631.47 2.304.315.662.75 1.183 1.309 1.565.558.37 1.203.554 1.933.554.447 0 .846-.073 1.201-.218.355-.157.67-.366.944-.623.274-.258.508-.548.7-.874h.03v2.354c0 .404-.105.73-.318.977-.203.246-.492.369-.867.369h-3.805v1.33h4.062c.72 0 1.29-.236 1.706-.707.415-.46.623-1.082.623-1.867v-5.08c0-.909-.168-1.7-.502-2.374-.325-.684-.787-1.216-1.385-1.597-.599-.382-1.304-.572-2.115-.572zm19.267 0c-.852 0-1.582.201-2.191.605a3.827 3.827 0 00-1.399 1.615c-.324.673-.488 1.43-.488 2.272 0 .83.147 1.587.441 2.271.295.684.716 1.227 1.264 1.631.548.393 1.197.59 1.947.59.518 0 .97-.097 1.356-.287.385-.19.703-.431.957-.723.264-.303.473-.616.625-.941h.03v1.748h1.415v-4.34c0-.83-.161-1.581-.486-2.254a3.822 3.822 0 00-1.356-1.598c-.588-.392-1.293-.59-2.115-.59zm23.934 0c-.792 0-1.493.201-2.102.605a4.155 4.155 0 00-1.445 1.615c-.355.673-.533 1.43-.533 2.272 0 .84.178 1.603.533 2.287a4.318 4.318 0 001.445 1.615c.609.393 1.31.59 2.102.59.791 0 1.49-.197 2.1-.59a4.154 4.154 0 001.445-1.615c.355-.684.533-1.446.533-2.287s-.178-1.599-.533-2.272a4.003 4.003 0 00-1.446-1.615c-.608-.404-1.308-.605-2.1-.605zm11.697 0c-.7 0-1.323.163-1.871.488-.548.314-.98.758-1.295 1.33-.304.572-.455 1.24-.455 2.002v4.96h1.398V62.73c0-.515.102-.958.305-1.328.213-.381.488-.673.822-.875.345-.202.71-.302 1.096-.302.386 0 .745.1 1.08.302.345.202.62.494.822.875.213.37.319.813.319 1.328v4.946h1.4v-4.961c0-.763-.156-1.43-.47-2.002a3.27 3.27 0 00-1.28-1.33c-.538-.325-1.16-.488-1.87-.488zm11.67 0c-.852 0-1.583.201-2.191.605a3.831 3.831 0 00-1.4 1.615c-.325.673-.487 1.43-.487 2.272 0 .83.147 1.587.441 2.271.294.684.714 1.227 1.262 1.631.548.393 1.198.59 1.95.59.517 0 .967-.097 1.353-.287.385-.19.705-.431.959-.723.263-.303.47-.616.623-.941h.031v1.748h1.416v-4.34c0-.83-.164-1.581-.488-2.254a3.818 3.818 0 00-1.354-1.598c-.588-.392-1.293-.59-2.115-.59zm20.46 0c-.74 0-1.388.197-1.946.59-.558.392-.994.93-1.309 1.615-.314.673-.473 1.434-.473 2.287 0 .863.184 1.62.55 2.271.375.64.89 1.137 1.55 1.496.66.348 1.415.522 2.268.522h1.994v-1.328h-2.024c-.497 0-.955-.09-1.37-.27a2.596 2.596 0 01-1.005-.824c-.263-.37-.42-.819-.47-1.346h5.78c.021-.1.032-.219.032-.353.01-.135.016-.264.016-.387 0-.796-.133-1.513-.397-2.152-.264-.65-.663-1.168-1.2-1.55-.528-.38-1.194-.571-1.995-.571zm17 0c-.7 0-1.324.163-1.872.488a3.37 3.37 0 00-1.293 1.33c-.304.572-.457 1.24-.457 2.002v4.96h1.4V62.73c0-.515.102-.958.305-1.328.213-.381.487-.673.822-.875.345-.202.71-.302 1.096-.302.385 0 .745.1 1.08.302.345.202.62.494.822.875.213.37.319.813.319 1.328v4.946h1.4v-4.961c0-.763-.156-1.43-.47-2.002a3.27 3.27 0 00-1.28-1.33c-.538-.325-1.16-.488-1.871-.488zm28.915 0c-.791 0-1.49.201-2.1.605a4.155 4.155 0 00-1.445 1.615c-.355.673-.533 1.43-.533 2.272 0 .84.178 1.603.533 2.287a4.318 4.318 0 001.445 1.615c.61.393 1.309.59 2.1.59.791 0 1.49-.197 2.1-.59a4.154 4.154 0 001.445-1.615c.355-.684.533-1.446.533-2.287s-.178-1.599-.533-2.272a4.003 4.003 0 00-1.445-1.615c-.61-.404-1.309-.605-2.1-.605zm46.217 0c-.852 0-1.583.201-2.192.605a3.827 3.827 0 00-1.398 1.615c-.325.673-.488 1.43-.488 2.272 0 .83.147 1.587.441 2.271.294.684.716 1.227 1.264 1.631.548.393 1.196.59 1.947.59.517 0 .97-.097 1.355-.287.386-.19.706-.431.96-.723.263-.303.47-.616.623-.941h.03v1.748h1.415v-4.34c0-.83-.162-1.581-.486-2.254a3.822 3.822 0 00-1.356-1.598c-.588-.392-1.293-.59-2.115-.59zm23.457 0c-.852 0-1.583.201-2.192.605a3.831 3.831 0 00-1.4 1.615c-.325.673-.486 1.43-.486 2.272 0 .83.147 1.587.441 2.271.294.684.716 1.227 1.264 1.631.548.393 1.196.59 1.947.59.517 0 .97-.097 1.356-.287.385-.19.703-.431.957-.723.263-.303.472-.616.625-.941h.029v1.748h1.416v-4.34c0-.83-.162-1.581-.486-2.254a3.822 3.822 0 00-1.356-1.598c-.588-.392-1.293-.59-2.115-.59zm20.097 0c-.852 0-1.582.201-2.19.605a3.827 3.827 0 00-1.4 1.615c-.324.673-.488 1.43-.488 2.272 0 .83.148 1.587.442 2.271.294.684.716 1.227 1.263 1.631.548.393 1.197.59 1.948.59.517 0 .97-.097 1.355-.287.386-.19.706-.431.96-.723.263-.303.47-.616.622-.941h.031v1.748h1.415v-4.34c0-.83-.162-1.581-.487-2.254a3.822 3.822 0 00-1.355-1.598c-.589-.392-1.294-.59-2.116-.59zm-332.093.203v8.814c0 .37-.093.662-.276.875-.182.224-.446.336-.79.336h-1.233v1.33h1.476c.69 0 1.232-.219 1.627-.656.396-.438.594-1.032.594-1.783v-8.916h-1.398zm34.584 0c-.69 0-1.234.219-1.63.656-.385.426-.577 1.02-.577 1.783v6.139h1.4v-6.04c0-.38.09-.677.274-.89.192-.213.456-.32.79-.32h1.34v-1.328h-1.597zm16.937 0v1.328h3.942c.162 0 .293.062.394.185a.538.538 0 01.153.37c0 .112-.026.219-.077.32-.04.1-.137.202-.289.303l-3.576 2.505a2.511 2.511 0 00-.7.758 1.88 1.88 0 00-.228.942c0 .336.071.651.213.943.152.28.356.504.61.672.253.168.542.252.867.252h4.58v-1.328h-4.154a.525.525 0 01-.41-.168.602.602 0 01-.153-.387c0-.112.02-.22.06-.32.051-.101.153-.202.305-.303l3.576-2.506c.295-.213.518-.46.67-.74.163-.292.243-.611.243-.96a1.91 1.91 0 00-.229-.925 1.702 1.702 0 00-.594-.69 1.433 1.433 0 00-.836-.251h-4.367zm10.143 0v8.578h1.414v-8.578h-1.414zm11.627 0v8.578h1.414v-8.578h-1.414zm9.572 0c-.801 0-1.517.19-2.146.572a4.153 4.153 0 00-1.49 1.547c-.366.64-.55 1.362-.55 2.17 0 .807.184 1.537.55 2.187.365.64.86 1.15 1.49 1.531.629.382 1.345.57 2.146.57h.912v-1.327h-.959c-.517 0-.982-.13-1.398-.387a2.963 2.963 0 01-.975-1.076 3.198 3.198 0 01-.35-1.498c0-.55.117-1.048.35-1.496.244-.449.569-.803.975-1.06.416-.27.88-.405 1.398-.405h.96v-1.328h-.913zm37.053 0c-.69 0-1.233.219-1.63.656-.385.426-.577 1.02-.577 1.783v6.139h1.4v-6.04c0-.38.09-.677.274-.89.192-.213.456-.32.79-.32h1.34v-1.328h-1.597zm68.162 0c-.802 0-1.516.19-2.145.572a4.158 4.158 0 00-1.492 1.547c-.365.64-.547 1.362-.547 2.17 0 .807.182 1.537.547 2.187a4.2 4.2 0 001.492 1.531c.63.382 1.343.57 2.145.57h.914v-1.327h-.96c-.516 0-.984-.13-1.4-.387a2.958 2.958 0 01-.972-1.076 3.2 3.2 0 01-.352-1.498c0-.55.119-1.048.352-1.496.243-.449.567-.803.973-1.06.415-.27.883-.405 1.4-.405h.959v-1.328h-.914zm33.348 0v8.578h1.414v-8.578h-1.414zm27.869 0l2.525 7.52c.132.403.336.716.61.94.283.214.598.32.943.32.355 0 .67-.106.943-.32.274-.224.481-.537.623-.94l2.528-7.52h-1.508l-2.268 6.947a.58.58 0 01-.137.236.21.21 0 01-.166.067.248.248 0 01-.168-.067.581.581 0 01-.136-.236l-2.252-6.947h-1.537zm11.761 0v8.578h1.416v-8.578h-1.416zm-64.648 1.093c.335 0 .624.056.867.168.254.113.463.263.625.453.173.18.309.388.41.624.102.224.173.46.213.707.04.235.06.458.06.671h-4.427c.02-.314.08-.627.182-.941.101-.314.248-.595.441-.842.193-.258.422-.46.686-.605.274-.157.588-.235.943-.235zm-221.932.034c.487 0 .923.135 1.309.404.385.27.69.638.914 1.11.233.47.35 1.02.35 1.648 0 .65-.117 1.21-.35 1.681a2.7 2.7 0 01-.943 1.094 2.279 2.279 0 01-1.295.387 2.32 2.32 0 01-1.293-.387c-.386-.258-.695-.623-.928-1.094-.223-.47-.336-1.024-.336-1.664 0-.65.113-1.212.336-1.683.233-.483.542-.852.928-1.11a2.346 2.346 0 011.308-.386zm11.617 0c.538 0 1.005.14 1.4.42.397.28.705.662.929 1.144.223.471.336 1.003.336 1.598 0 .594-.113 1.133-.336 1.615a2.84 2.84 0 01-.928 1.127c-.396.28-.863.42-1.4.42-.528 0-.995-.14-1.4-.42a2.84 2.84 0 01-.929-1.127 3.8 3.8 0 01-.334-1.615c0-.595.111-1.127.334-1.598.224-.482.532-.864.928-1.144.406-.28.873-.42 1.4-.42zm23.327 0c.517 0 .968.14 1.353.42.386.269.68.64.883 1.11.213.472.32 1.004.32 1.599 0 .605-.112 1.154-.336 1.648a2.707 2.707 0 01-.912 1.144c-.385.27-.832.403-1.34.403-.547 0-1.014-.14-1.4-.42a2.662 2.662 0 01-.883-1.127 4.078 4.078 0 01-.303-1.598c0-.605.1-1.144.303-1.615.213-.482.513-.864.899-1.144.395-.28.868-.42 1.416-.42zm33.865 0c.517 0 .968.14 1.353.42.386.269.68.64.883 1.11.213.472.32 1.004.32 1.599 0 .605-.112 1.154-.335 1.648a2.707 2.707 0 01-.913 1.144c-.385.27-.832.403-1.34.403-.547 0-1.014-.14-1.4-.42a2.662 2.662 0 01-.883-1.127 4.078 4.078 0 01-.302-1.598c0-.605.1-1.144.302-1.615.213-.482.513-.864.899-1.144.396-.28.868-.42 1.416-.42zm47.9 0c.518 0 .968.14 1.354.42.385.269.68.64.883 1.11.213.472.32 1.004.32 1.599 0 .605-.113 1.154-.336 1.648a2.707 2.707 0 01-.912 1.144c-.386.27-.833.403-1.34.403-.548 0-1.015-.14-1.4-.42a2.662 2.662 0 01-.883-1.127 4.079 4.079 0 01-.305-1.598c0-.605.102-1.144.305-1.615.213-.482.513-.864.898-1.144.396-.28.868-.42 1.416-.42zm37.432 0c.517 0 .968.14 1.353.42.386.269.68.64.883 1.11.213.472.32 1.004.32 1.599 0 .605-.112 1.154-.335 1.648a2.707 2.707 0 01-.912 1.144c-.386.27-.833.403-1.34.403-.548 0-1.015-.14-1.4-.42a2.662 2.662 0 01-.884-1.127 4.078 4.078 0 01-.302-1.598c0-.605.1-1.144.302-1.615.214-.482.513-.864.899-1.144.396-.28.868-.42 1.416-.42zm11.965 0c.477 0 .907.128 1.293.386.395.258.704.627.927 1.11.234.47.35 1.033.35 1.683 0 .64-.116 1.193-.35 1.664a2.594 2.594 0 01-.927 1.094 2.253 2.253 0 01-1.28.387c-.476 0-.912-.129-1.308-.387-.386-.258-.695-.623-.928-1.094-.233-.47-.35-1.03-.35-1.681 0-.628.111-1.178.334-1.649a2.88 2.88 0 01.93-1.11c.386-.268.822-.403 1.309-.403zm11.998 0c.538 0 1.003.14 1.398.42.396.28.707.662.93 1.144.223.471.334 1.003.334 1.598a3.8 3.8 0 01-.334 1.615 2.844 2.844 0 01-.93 1.127c-.395.28-.86.42-1.398.42-.528 0-.995-.14-1.4-.42a2.84 2.84 0 01-.928-1.127 3.801 3.801 0 01-.336-1.615c0-.595.112-1.127.336-1.598.223-.482.532-.864.927-1.144.406-.28.873-.42 1.4-.42zm23.336 0c.517 0 .97.14 1.355.42.386.269.68.64.883 1.11.213.472.318 1.004.318 1.599 0 .605-.11 1.154-.334 1.648a2.711 2.711 0 01-.914 1.144c-.385.27-.83.403-1.338.403-.547 0-1.014-.14-1.4-.42a2.662 2.662 0 01-.883-1.127 4.079 4.079 0 01-.304-1.598c0-.605.101-1.144.304-1.615.213-.482.513-.864.899-1.144.395-.28.866-.42 1.414-.42zm66.406 0c.538 0 1.005.14 1.4.42.396.28.705.662.928 1.144.223.471.334 1.003.334 1.598a3.8 3.8 0 01-.334 1.615 2.84 2.84 0 01-.928 1.127c-.395.28-.862.42-1.4.42-.528 0-.995-.14-1.4-.42a2.84 2.84 0 01-.928-1.127 3.801 3.801 0 01-.336-1.615c0-.595.113-1.127.336-1.598.223-.482.532-.864.928-1.144.405-.28.872-.42 1.4-.42zm46.188 0c.517 0 .968.14 1.353.42.386.269.68.64.883 1.11.213.472.32 1.004.32 1.599 0 .605-.113 1.154-.336 1.648a2.707 2.707 0 01-.912 1.144c-.385.27-.832.403-1.34.403-.548 0-1.015-.14-1.4-.42a2.658 2.658 0 01-.881-1.127 4.079 4.079 0 01-.305-1.598c0-.605.102-1.144.305-1.615.213-.482.511-.864.896-1.144.396-.28.869-.42 1.416-.42zm23.457 0c.517 0 .968.14 1.353.42.386.269.68.64.883 1.11.213.472.32 1.004.32 1.599 0 .605-.113 1.154-.336 1.648a2.707 2.707 0 01-.912 1.144c-.385.27-.832.403-1.34.403-.548 0-1.015-.14-1.4-.42a2.662 2.662 0 01-.883-1.127 4.078 4.078 0 01-.303-1.598c0-.605.1-1.144.303-1.615.213-.482.513-.864.899-1.144.395-.28.868-.42 1.416-.42zm20.097 0c.518 0 .968.14 1.354.42.385.269.68.64.883 1.11.213.472.32 1.004.32 1.599 0 .605-.113 1.154-.336 1.648a2.707 2.707 0 01-.912 1.144c-.386.27-.833.403-1.34.403-.548 0-1.015-.14-1.4-.42a2.658 2.658 0 01-.881-1.127 4.078 4.078 0 01-.305-1.598c0-.605.102-1.144.305-1.615.213-.482.51-.864.896-1.144.396-.28.868-.42 1.416-.42zm-222.701.015c.538 0 1 .142 1.385.422.385.27.685.638.898 1.11.213.47.32 1.003.32 1.597a3.65 3.65 0 01-.335 1.582c-.213.46-.517.825-.913 1.094-.385.27-.838.404-1.355.404-.528 0-.984-.135-1.37-.404a2.857 2.857 0 01-.882-1.111 3.867 3.867 0 01-.305-1.547c0-.595.102-1.127.305-1.598.213-.482.508-.858.883-1.127.385-.28.841-.422 1.369-.422z"/>
</svg>