<svg viewBox="0 0 393 71" xmlns="http://www.w3.org/2000/svg">
  <title>otvoreni akti</title>
  <desc id="catDesc">Logotype "otvoreni akti" with a magnifying glass instead of the letter "o"</desc>
  <path d="M9 32.06c0-2.37.36-4.55 1.1-6.54.72-2 1.7-3.65 2.92-4.97a17.81 17.81 0 013.9-3.24 14.49 14.49 0 014.3-1.75l1.47 6.66a8.66 8.66 0 00-4.27 3.25c-1.2 1.62-1.8 3.82-1.8 6.6 0 3.22.91 5.77 2.72 7.63 1.82 1.87 4 2.8 6.57 2.8v6.66c-4.88 0-8.92-1.62-12.11-4.85C10.6 41.08 9 37 9 32.06zm16.72-10.44v-6.65c4.83 0 8.85 1.61 12.06 4.84 3.21 3.23 4.81 7.31 4.81 12.25 0 1.92-.24 3.71-.72 5.38a15.54 15.54 0 01-1.9 4.3 16.18 16.18 0 01-9.66 6.82l-1.4-6.6A8.88 8.88 0 0031 40.85a8.85 8.85 0 003.44-4.81c.37-1.19.56-2.5.56-3.97 0-3.2-.91-5.75-2.73-7.62a8.81 8.81 0 00-6.55-2.82zm21.81.91v-6.47h5.63l.56-8.37h6.94v8.37H71.9v6.47H47.53zm5.38 15.69v-12.5h7.75v11.6c0 2 .16 3.3.5 3.93.33.63 1.03.94 2.09.94.8 0 1.84-.09 3.16-.25a64.6 64.6 0 003.34-.5l1.38-.28.78 5.68-1.88.64c-.77.26-2.09.6-3.95 1.04-1.87.42-3.42.64-4.67.64-3.23 0-5.46-.82-6.68-2.46-1.21-1.63-1.82-4.46-1.82-8.48zm22.22-21.44l7.62-1.81 11.9 33.1h-7.28L75.13 16.77zM17.78 51.77L6.56 70.84l-5.8-3.9L12.01 48l5.78 3.77zm75.15-16.46l7.22-20.34 7.68 1.87-10.3 26.29-4.6-7.82zm17.65-3.25c0-2.37.37-4.55 1.1-6.54.73-2 1.7-3.65 2.92-4.97a17.81 17.81 0 013.9-3.24 14.49 14.49 0 014.3-1.75l1.47 6.66a8.66 8.66 0 00-4.26 3.25c-1.2 1.62-1.8 3.82-1.8 6.6 0 3.22.9 5.77 2.72 7.63 1.81 1.87 4 2.8 6.56 2.8v6.66c-4.88 0-8.91-1.62-12.1-4.85-3.2-3.23-4.8-7.31-4.8-12.25zm16.72-10.44v-6.65c4.84 0 8.86 1.61 12.06 4.84 3.21 3.23 4.82 7.31 4.82 12.25 0 1.92-.24 3.71-.72 5.38a15.54 15.54 0 01-1.9 4.3 16.18 16.18 0 01-9.66 6.82l-1.41-6.6a8.88 8.88 0 002.1-1.12c.66-.48 1.3-1.1 1.93-1.87a8.85 8.85 0 001.5-2.94c.38-1.19.56-2.5.56-3.97 0-3.2-.9-5.75-2.73-7.62a8.81 8.81 0 00-6.55-2.82zm21.81-2.93l5.88-3.72 5.75 7.56v25.53h-7.72V25.53l-3.9-6.84zm12.72-.97c.09-.08.22-.18.4-.3.17-.11.56-.33 1.17-.65a13.92 13.92 0 014.54-1.5c1.08-.2 2.17-.3 3.3-.3v7.19c-2.7 0-5.05.4-7.03 1.18l-2.38-5.62zm11.91 14.9c0-2.83.4-5.39 1.22-7.67a15.15 15.15 0 013.3-5.56 14.37 14.37 0 0110.45-4.42c4.02 0 7.15 1.14 9.39 3.44 2.24 2.29 3.36 5.5 3.36 9.62 0 .9-.06 1.79-.17 2.67a20.9 20.9 0 01-.33 1.99l-.16.65-15.94 1.72-.75-4.97 10.32-1.62v-.38c0-4.64-1.9-6.96-5.72-6.96-1.08 0-2.05.16-2.9.5-.84.33-1.62.9-2.35 1.71-.73.82-1.3 2-1.69 3.57-.4 1.56-.6 3.46-.6 5.71 0 3.53.72 6.07 2.13 7.65 1.42 1.57 3.6 2.35 6.56 2.35a32.7 32.7 0 008.5-1.44l1.44-.5 1.22 5.73-.51.3a24.87 24.87 0 01-3.94 1.5 30.36 30.36 0 01-7.67.95c-4.8 0-8.52-1.51-11.18-4.53-2.65-3.03-3.98-7.03-3.98-12zm35.63 15.44v-32h7.75v32h-7.75zm10.3-30.53l.37-.26a20.07 20.07 0 012.39-1.41 12.2 12.2 0 011.7-.61 6.78 6.78 0 011.86-.28 12.8 12.8 0 017.66 2.42 8.75 8.75 0 012.71 3.23 10 10 0 011.04 4.6v22.84h-7.75V26.12c0-1.5-.35-2.53-1.03-3.1-.7-.58-1.86-.86-3.5-.86-.53 0-1.11.08-1.77.26-.66.18-1.17.35-1.55.52l-.6.28-1.52-5.69zm27.26-12.16a3.9 3.9 0 011.25-3 4.55 4.55 0 013.22-1.15c1.3 0 2.36.38 3.15 1.16a4 4 0 011.19 3c0 1.18-.4 2.15-1.22 2.9a4.43 4.43 0 01-3.12 1.13 4.64 4.64 0 01-3.25-1.11 3.76 3.76 0 01-1.22-2.93zm.5 42.7v-32h7.81v32h-7.81zm35.03-9.41a9.95 9.95 0 013.39-7.57c.51-.48.94-.82 1.3-1.03l.56-.31 11.12-1.47v5l-8.18 1.53c-.67 1-1 2.1-1 3.28 0 3.02 1.55 4.53 4.65 4.53.75 0 1.5-.08 2.27-.24a9.46 9.46 0 001.7-.5l.56-.29 2.5 5.13c-.23.19-.54.42-.95.69-.4.27-1.26.63-2.56 1.07-1.3.45-2.62.68-3.95.68-3.78 0-6.62-.98-8.54-2.93-1.91-1.94-2.87-4.47-2.87-7.57zm3.6-22.53a33.3 33.3 0 019.46-1.16c4.36 0 7.82 1.2 10.4 3.58 2.6 2.38 3.88 5.6 3.88 9.67v10.37l3.9 7.1-5.96 3.47-5.69-7.57V27.53c-.12-4.02-2.62-6.03-7.5-6.03a38.6 38.6 0 00-6.66.75l-1.15.28-.69-6.4zm34.4 31.93V0h7.75v48.06h-7.75zm10.94-11.9v-8.44l10.8-12.88 5.7 3.72-11.32 13.25 13.2 14.13-7.1 3.53-11.28-13.31zm20.65-13.63v-6.47h5.63l.56-8.37h6.94v8.37h11.25v6.47h-24.38zm5.38 15.69v-12.5h7.75v11.6c0 2 .16 3.3.5 3.93.33.63 1.03.94 2.1.94.78 0 1.83-.09 3.15-.25a64.6 64.6 0 003.34-.5l1.38-.28.78 5.68-1.88.64c-.77.26-2.09.6-3.95 1.04-1.87.42-3.42.64-4.67.64-3.23 0-5.46-.82-6.67-2.46-1.22-1.63-1.83-4.46-1.83-8.48zm26.28-32.84a3.9 3.9 0 011.25-3 4.55 4.55 0 013.22-1.16c1.31 0 2.36.38 3.15 1.16a4 4 0 011.2 3c0 1.18-.41 2.15-1.23 2.9a4.43 4.43 0 01-3.12 1.13 4.64 4.64 0 01-3.25-1.11 3.76 3.76 0 01-1.22-2.93zm.5 42.68v-32h7.81v32h-7.81z" fill="#FFF" fill-rule="evenodd"/>
</svg>