<svg xmlns="http://www.w3.org/2000/svg" viewBox="0 0 714 134">
    <title>otvoreni akti</title>
    <desc id="catDesc">Logotype "otvoreni akti" with a magnifying glass instead of the letter "o"</desc>
    <g fill="#FFF" fill-rule="evenodd">
        <path d="M15.374 58.254c0-4.315.663-8.28 1.99-11.895s3.098-6.624 5.316-9.027c2.217-2.404 4.586-4.363 7.107-5.877 2.52-1.514 5.126-2.574 7.817-3.18l2.672 12.094c-2.994.984-5.58 2.953-7.76 5.905-2.18 2.953-3.27 6.946-3.27 11.98 0 5.868 1.65 10.495 4.947 13.883 3.297 3.387 7.277 5.081 11.94 5.081v12.094c-8.87 0-16.214-2.933-22.032-8.8-5.818-5.868-8.727-13.287-8.727-22.258zM45.791 39.29V27.197c8.794 0 16.109 2.933 21.946 8.8 5.837 5.867 8.755 13.286 8.755 22.257 0 3.483-.435 6.738-1.307 9.766-.872 3.028-2.028 5.63-3.468 7.807a29.406 29.406 0 01-5.089 5.848c-1.952 1.723-3.96 3.104-6.026 4.145a31.553 31.553 0 01-6.453 2.413l-2.559-11.98a16.154 16.154 0 003.81-2.044c1.212-.87 2.387-2.006 3.524-3.407 1.138-1.4 2.047-3.18 2.73-5.337.682-2.157 1.023-4.56 1.023-7.21 0-5.83-1.658-10.448-4.975-13.854-3.316-3.407-7.287-5.11-11.91-5.11zm39.684 1.647V29.184H95.71l1.024-15.217h12.621v15.217h20.468v11.753H85.475zm9.78 28.503V46.728h14.1v21.065c0 3.634.302 6.019.909 7.154.606 1.136 1.876 1.704 3.81 1.704 1.44 0 3.354-.152 5.741-.455 2.388-.303 4.416-.605 6.084-.908l2.501-.511 1.422 10.333c-.872.303-2.009.691-3.411 1.164-1.403.474-3.8 1.098-7.193 1.874-3.392.776-6.225 1.164-8.5 1.164-5.874 0-9.92-1.486-12.138-4.457-2.217-2.971-3.326-8.11-3.326-15.415zm40.423-38.95l13.872-3.293 21.662 60.128h-13.247L135.678 30.49zM31.36 94.06l-20.434 34.656-10.54-7.083L20.85 87.21l10.51 6.85zM168.085 64.16l13.133-36.962 13.986 3.406-18.762 47.75-8.357-14.194zm32.122-5.905c0-4.315.664-8.28 1.99-11.895 1.327-3.615 3.099-6.624 5.316-9.027 2.218-2.404 4.586-4.363 7.107-5.877 2.52-1.514 5.126-2.574 7.817-3.18l2.673 12.094c-2.995.984-5.582 2.953-7.761 5.905-2.18 2.953-3.27 6.946-3.27 11.98 0 5.868 1.65 10.495 4.947 13.883 3.298 3.387 7.278 5.081 11.94 5.081v12.094c-8.87 0-16.213-2.933-22.031-8.8-5.819-5.868-8.728-13.287-8.728-22.258zm30.418-18.964V27.197c8.793 0 16.108 2.933 21.945 8.8 5.837 5.867 8.756 13.286 8.756 22.257 0 3.483-.436 6.738-1.308 9.766-.872 3.028-2.028 5.63-3.468 7.807a29.406 29.406 0 01-5.088 5.848c-1.952 1.723-3.961 3.104-6.027 4.145a31.553 31.553 0 01-6.453 2.413l-2.558-11.98a16.154 16.154 0 003.809-2.044c1.213-.87 2.388-2.006 3.525-3.407 1.137-1.4 2.047-3.18 2.729-5.337.682-2.157 1.023-4.56 1.023-7.21 0-5.83-1.658-10.448-4.974-13.854-3.317-3.407-7.287-5.11-11.911-5.11zm39.684-5.337l10.688-6.756 10.462 13.74v46.388h-14.043V46.388l-7.107-12.435zm23.14-1.76a4.5 4.5 0 01.71-.54c.322-.207 1.033-.605 2.132-1.192a25.346 25.346 0 013.497-1.533c1.232-.435 2.824-.832 4.776-1.192a33.04 33.04 0 015.998-.54v13.06c-4.928 0-9.192.719-12.793 2.157l-4.32-10.22zm21.661 27.083c0-5.148.74-9.794 2.217-13.939 1.479-4.144 3.478-7.513 5.999-10.106 2.52-2.593 5.4-4.58 8.641-5.962 3.241-1.381 6.7-2.072 10.376-2.072 7.316 0 13.01 2.082 17.085 6.245 4.075 4.164 6.112 9.993 6.112 17.488 0 1.628-.104 3.246-.313 4.855-.208 1.608-.407 2.81-.597 3.605l-.284 1.192-28.996 3.123-1.364-9.028 18.762-2.952v-.681c0-8.441-3.468-12.662-10.405-12.662-1.97 0-3.724.303-5.259.908-1.535.606-2.966 1.647-4.292 3.123-1.327 1.477-2.35 3.634-3.07 6.473-.72 2.839-1.08 6.302-1.08 10.39 0 6.397 1.288 11.025 3.865 13.883 2.578 2.858 6.558 4.286 11.94 4.286 2.577 0 5.373-.293 8.386-.88 3.013-.586 5.373-1.164 7.078-1.731l2.616-.909 2.217 10.39c-.228.152-.54.332-.938.54-.398.208-1.298.606-2.7 1.192a37.4 37.4 0 01-4.464 1.533c-1.573.436-3.62.833-6.14 1.193-2.52.36-5.126.54-7.818.54-8.717 0-15.492-2.745-20.325-8.234-4.833-5.488-7.249-12.756-7.249-21.803zm64.814 28.049V29.184h14.1v58.14h-14.1zm18.762-55.472c.152-.114.37-.275.654-.483.284-.208.862-.587 1.734-1.136a22.198 22.198 0 012.615-1.42c.872-.397 1.905-.766 3.099-1.106 1.194-.34 2.321-.511 3.382-.511 2.502 0 4.937.369 7.306 1.107a23.31 23.31 0 016.624 3.293c2.047 1.457 3.695 3.416 4.946 5.877 1.25 2.46 1.876 5.242 1.876 8.346v41.505h-14.1V47.467c0-2.726-.625-4.609-1.876-5.65-1.25-1.04-3.373-1.561-6.367-1.561-.948 0-2.019.16-3.213.482-1.194.322-2.132.634-2.814.937l-1.08.511-2.786-10.333zm49.577-22.087c0-2.233.758-4.05 2.274-5.45 1.516-1.401 3.468-2.102 5.856-2.102s4.302.7 5.742 2.101c1.44 1.4 2.16 3.218 2.16 5.45 0 2.158-.738 3.919-2.217 5.281-1.478 1.363-3.373 2.044-5.685 2.044-2.464 0-4.435-.672-5.913-2.015-1.478-1.344-2.217-3.114-2.217-5.31zm.91 77.559V29.184h14.213v58.14h-14.213zm63.733-17.09c0-2.12.332-4.126.995-6.019.664-1.893 1.46-3.435 2.388-4.627.929-1.193 1.857-2.224 2.786-3.095.929-.87 1.715-1.495 2.36-1.873l1.023-.568 20.24-2.669v9.085l-14.896 2.782c-1.213 1.817-1.82 3.804-1.82 5.962 0 5.488 2.824 8.232 8.472 8.232a19.23 19.23 0 004.122-.454c1.383-.303 2.416-.605 3.099-.908l1.023-.511 4.548 9.311c-.417.341-.995.757-1.734 1.25-.739.492-2.293 1.145-4.662 1.958a22 22 0 01-7.192 1.221c-6.86 0-12.034-1.77-15.521-5.309s-5.23-8.128-5.23-13.768zm6.538-40.937c4.663-1.401 10.405-2.101 17.227-2.101 7.922 0 14.233 2.167 18.933 6.5 4.7 4.335 7.05 10.192 7.05 17.574v18.85l7.107 12.889-10.86 6.302-10.347-13.74v-25.55c-.228-7.306-4.776-10.959-13.645-10.959-1.933 0-4.084.152-6.453.455-2.369.302-4.255.605-5.657.908l-2.104.511-1.25-11.64zm62.597 58.027V0h14.1v87.325h-14.1zm19.9-21.633v-15.33l19.67-23.392 10.348 6.756L611.378 57.8l23.992 25.664-12.905 6.416-20.525-24.188zm37.58-24.755V29.184h10.234l1.023-15.217H663.4v15.217h20.467v11.753h-44.346zM649.3 69.44V46.728h14.1v21.065c0 3.634.303 6.019.91 7.154.606 1.136 1.876 1.704 3.809 1.704 1.44 0 3.354-.152 5.742-.455 2.388-.303 4.416-.605 6.083-.908l2.502-.511 1.421 10.333c-.872.303-2.009.691-3.411 1.164-1.402.474-3.8 1.098-7.192 1.874-3.392.776-6.226 1.164-8.5 1.164-5.875 0-9.92-1.486-12.138-4.457s-3.326-8.11-3.326-15.415zm47.814-59.674c0-2.233.758-4.05 2.274-5.45 1.517-1.401 3.469-2.102 5.856-2.102 2.388 0 4.302.7 5.743 2.101 1.44 1.4 2.16 3.218 2.16 5.45 0 2.158-.739 3.919-2.217 5.281-1.478 1.363-3.373 2.044-5.686 2.044-2.463 0-4.434-.672-5.912-2.015-1.479-1.344-2.218-3.114-2.218-5.31zm.91 77.559V29.184h14.214v58.14h-14.214z"/><path d="M199.39 128.246c-2.091 0-3.827-.97-4.675-2.611h-.233V128h-3.267v-20.727h3.39v8.163h.233c.78-1.627 2.502-2.625 4.553-2.625 3.787 0 6.138 2.953 6.138 7.724 0 4.744-2.365 7.711-6.138 7.711zm-1.066-12.605c-2.31 0-3.773 1.873-3.773 4.894 0 3.022 1.449 4.895 3.773 4.895s3.719-1.846 3.719-4.895c0-3.049-1.408-4.894-3.719-4.894zm17.063 12.66c-4.485 0-7.192-2.926-7.192-7.78 0-4.812 2.748-7.751 7.192-7.751 4.457 0 7.191 2.925 7.191 7.751 0 4.854-2.72 7.78-7.191 7.78zm0-2.776c2.365 0 3.705-1.832 3.705-4.99 0-3.158-1.354-4.99-3.705-4.99-2.366 0-3.719 1.832-3.719 4.99 0 3.158 1.353 4.99 3.719 4.99zM226.133 128v-20.727h3.39V128h-3.39zm9.42-17.445c-1.121 0-2.037-.889-2.037-2.01 0-1.108.916-2.01 2.037-2.01 1.107 0 2.023.903 2.023 2.01 0 1.121-.916 2.01-2.023 2.01zm1.668 2.502v15.517c0 3.063-1.682 4.526-5.032 4.526-.177 0-.724-.014-.82-.028v-2.611c.041.014.37.014.438.014 1.504 0 2.037-.56 2.037-1.942v-15.476h3.377zm8.312 15.19c-2.885 0-4.949-1.75-4.949-4.485 0-2.68 2.037-4.252 5.674-4.457l3.855-.233v-1.285c0-1.49-.984-2.324-2.816-2.324-1.559 0-2.625.56-2.94 1.586h-3.199c.274-2.612 2.748-4.28 6.303-4.28 3.842 0 6.002 1.86 6.002 5.018V128h-3.268v-2.05h-.232c-.834 1.448-2.475 2.296-4.43 2.296zm.998-2.612c2.051 0 3.582-1.34 3.582-3.117V121.3l-3.377.232c-1.9.123-2.789.82-2.789 2.065 0 1.285 1.08 2.037 2.584 2.037zm19.551-16.242h3.377v3.76h3.2v2.638h-3.2v7.438c0 1.49.629 2.16 2.05 2.16.48 0 .739-.028 1.15-.069v2.598a9.691 9.691 0 01-1.778.15c-3.432 0-4.799-1.148-4.799-4.033v-8.244h-2.365v-2.639h2.365v-3.76zM276.049 128v-14.943h3.267v2.324h.233c.41-1.477 2.023-2.57 3.951-2.57.492 0 1.094.054 1.408.136v3.09c-.26-.096-1.162-.191-1.736-.191-2.201 0-3.733 1.367-3.733 3.472V128h-3.39zm15.572.246c-2.885 0-4.95-1.75-4.95-4.484 0-2.68 2.038-4.252 5.675-4.457l3.855-.233v-1.285c0-1.49-.984-2.324-2.816-2.324-1.559 0-2.625.56-2.94 1.586h-3.199c.274-2.612 2.748-4.28 6.303-4.28 3.842 0 6.002 1.86 6.002 5.018V128h-3.268v-2.05h-.232c-.834 1.448-2.475 2.296-4.43 2.296zm.998-2.611c2.05 0 3.582-1.34 3.582-3.117V121.3l-3.377.232c-1.9.123-2.789.82-2.789 2.065 0 1.285 1.08 2.037 2.584 2.037zm14.889-14.602l-3.432-4.758h3.186l1.886 2.954h.247l1.886-2.954h3.186l-3.432 4.758h-3.527zM303.283 128v-2.078l7.944-9.953v-.246h-7.875v-2.666h11.921v2.27l-7.656 9.775v.232h7.78V128h-12.114zm17.65-17.445a2.016 2.016 0 01-2.023-2.01c0-1.108.916-2.01 2.024-2.01 1.12 0 2.037.903 2.037 2.01 0 1.121-.916 2.01-2.037 2.01zM319.253 128v-14.943h3.377V128h-3.377zm7.71 0v-20.727h3.392V128h-3.391zm9.393-17.445a2.016 2.016 0 01-2.023-2.01c0-1.108.916-2.01 2.023-2.01 1.122 0 2.038.903 2.038 2.01 0 1.121-.916 2.01-2.038 2.01zM334.674 128v-14.943h3.377V128h-3.377zm20.494-9.953h-3.227c-.314-1.45-1.435-2.502-3.295-2.502-2.324 0-3.705 1.832-3.705 4.95 0 3.171 1.395 5.017 3.705 5.017 1.764 0 2.94-.834 3.295-2.407h3.227c-.37 3.09-2.72 5.196-6.508 5.196-4.498 0-7.15-2.912-7.15-7.807 0-4.84 2.638-7.724 7.136-7.724 3.842 0 6.166 2.187 6.522 5.277zm7.355 10.2c-2.884 0-4.949-1.75-4.949-4.485 0-2.68 2.037-4.252 5.674-4.457l3.856-.233v-1.285c0-1.49-.985-2.324-2.817-2.324-1.558 0-2.625.56-2.94 1.586h-3.199c.274-2.612 2.748-4.28 6.303-4.28 3.842 0 6.002 1.86 6.002 5.018V128h-3.267v-2.05h-.233c-.834 1.448-2.474 2.296-4.43 2.296zm.998-2.612c2.051 0 3.583-1.34 3.583-3.117V121.3l-3.377.232c-1.9.123-2.79.82-2.79 2.065 0 1.285 1.08 2.037 2.584 2.037zm24.897 8.052c-3.842 0-6.357-1.681-6.63-4.251h3.403c.22 1.052 1.422 1.722 3.282 1.722 2.324 0 3.677-1.12 3.677-3.021v-2.844h-.232c-.861 1.613-2.488 2.488-4.566 2.488-3.774 0-6.125-2.926-6.125-7.41 0-4.58 2.365-7.56 6.18-7.56 2.036 0 3.814 1.011 4.634 2.638h.232v-2.392h3.268v15.025c0 3.432-2.762 5.606-7.123 5.606zm0-8.6c2.365 0 3.787-1.831 3.787-4.716 0-2.898-1.435-4.73-3.787-4.73-2.365 0-3.705 1.832-3.705 4.716 0 2.899 1.34 4.73 3.705 4.73zm11.28 2.913v-14.943h3.267v2.324h.232c.41-1.477 2.024-2.57 3.951-2.57.493 0 1.094.054 1.409.136v3.09c-.26-.096-1.162-.191-1.737-.191-2.2 0-3.732 1.367-3.732 3.472V128h-3.39zm15.572.246c-2.885 0-4.95-1.75-4.95-4.484 0-2.68 2.037-4.252 5.674-4.457l3.856-.233v-1.285c0-1.49-.985-2.324-2.817-2.324-1.558 0-2.625.56-2.94 1.586h-3.198c.273-2.612 2.748-4.28 6.302-4.28 3.842 0 6.002 1.86 6.002 5.018V128h-3.267v-2.05h-.233c-.834 1.448-2.474 2.296-4.43 2.296zm.998-2.611c2.05 0 3.582-1.34 3.582-3.117V121.3l-3.377.232c-1.9.123-2.79.82-2.79 2.065 0 1.285 1.08 2.037 2.585 2.037zm16.42 2.611c-3.788 0-6.153-2.98-6.153-7.725 0-4.73 2.38-7.71 6.152-7.71 2.051 0 3.747.984 4.54 2.625h.232v-8.163h3.39V128h-3.28v-2.365h-.233c-.848 1.64-2.57 2.611-4.649 2.611zm1.052-12.605c-2.31 0-3.732 1.845-3.732 4.894 0 3.063 1.408 4.895 3.732 4.895 2.338 0 3.76-1.86 3.76-4.895 0-3.021-1.436-4.894-3.76-4.894zm17.842 12.66c-4.484 0-7.191-2.926-7.191-7.78 0-4.812 2.748-7.751 7.191-7.751 4.457 0 7.191 2.925 7.191 7.751 0 4.854-2.72 7.78-7.191 7.78zm0-2.776c2.365 0 3.705-1.832 3.705-4.99 0-3.158-1.353-4.99-3.705-4.99-2.365 0-3.719 1.832-3.719 4.99 0 3.158 1.354 4.99 3.719 4.99zm10.61 2.475v-14.943h3.267v2.392h.232c.711-1.668 2.215-2.68 4.444-2.68 3.336 0 5.154 2.01 5.154 5.565V128h-3.39v-8.873c0-2.324-.958-3.486-3.022-3.486-2.023 0-3.295 1.408-3.295 3.65V128h-3.39zm21.232.246c-2.885 0-4.95-1.75-4.95-4.484 0-2.68 2.038-4.252 5.674-4.457l3.856-.233v-1.285c0-1.49-.984-2.324-2.817-2.324-1.558 0-2.625.56-2.939 1.586h-3.2c.274-2.612 2.749-4.28 6.304-4.28 3.841 0 6.002 1.86 6.002 5.018V128h-3.268v-2.05h-.232c-.834 1.448-2.475 2.296-4.43 2.296zm.998-2.611c2.05 0 3.582-1.34 3.582-3.117V121.3l-3.377.232c-1.9.123-2.79.82-2.79 2.065 0 1.285 1.081 2.037 2.585 2.037zm15.613-14.602l-3.418-4.758h3.186l1.886 2.954h.233l1.9-2.954h3.172l-3.418 4.758h-3.54zm8.313 7.014h-3.227c-.314-1.45-1.435-2.502-3.295-2.502-2.324 0-3.705 1.832-3.705 4.95 0 3.171 1.395 5.017 3.705 5.017 1.764 0 2.94-.834 3.295-2.407h3.227c-.37 3.09-2.721 5.196-6.508 5.196-4.498 0-7.15-2.912-7.15-7.807 0-4.84 2.638-7.724 7.136-7.724 3.842 0 6.166 2.187 6.522 5.277zm12.988 5.865h3.213c-.615 2.693-3.117 4.389-6.645 4.389-4.402 0-7.054-2.926-7.054-7.711 0-4.799 2.693-7.82 7.027-7.82 4.266 0 6.822 2.83 6.822 7.52v1.08h-10.445v.177c.082 2.53 1.517 4.115 3.746 4.115 1.682 0 2.844-.629 3.336-1.75zm-3.473-8.504c-2.023 0-3.445 1.463-3.595 3.705h7.04c-.068-2.27-1.408-3.705-3.445-3.705zM528.24 128v-20.727h3.39V128h-3.39zm7.67 0v-14.943h3.268v2.392h.232c.711-1.668 2.215-2.68 4.444-2.68 3.335 0 5.154 2.01 5.154 5.565V128h-3.39v-8.873c0-2.324-.958-3.486-3.022-3.486-2.024 0-3.295 1.408-3.295 3.65V128h-3.39zm18.84-17.445a2.016 2.016 0 01-2.023-2.01c0-1.108.916-2.01 2.023-2.01 1.121 0 2.037.903 2.037 2.01 0 1.121-.916 2.01-2.037 2.01zM553.068 128v-14.943h3.377V128h-3.377zm11.334-8.818l5.524-6.125h3.937l-5.96 6.412 6.37 8.531h-4.101l-4.799-6.453-1.203 1.203V128h-3.39v-20.727h3.39v11.909h.232zm18.116 9.119c-4.485 0-7.192-2.926-7.192-7.78 0-4.812 2.748-7.751 7.192-7.751 4.457 0 7.191 2.925 7.191 7.751 0 4.854-2.72 7.78-7.191 7.78zm0-2.776c2.365 0 3.705-1.832 3.705-4.99 0-3.158-1.354-4.99-3.705-4.99-2.366 0-3.72 1.832-3.72 4.99 0 3.158 1.354 4.99 3.72 4.99zm23.064-12.468L600.291 128h-3.732l-5.319-14.943h3.637l3.459 11.62h.232l3.432-11.62h3.582zm4.58-2.502a2.016 2.016 0 01-2.023-2.01c0-1.108.916-2.01 2.023-2.01 1.121 0 2.037.903 2.037 2.01 0 1.121-.916 2.01-2.037 2.01zM608.48 128v-14.943h3.377V128h-3.377zm7.711 0v-20.727h3.336v8.204h.246c.711-1.682 2.311-2.694 4.54-2.694 3.199 0 5.14 2.024 5.14 5.578V128h-3.39v-8.846c0-2.31-1.04-3.486-3.008-3.486-2.229 0-3.473 1.463-3.473 3.65V128h-3.39zm28.862.246c-2.885 0-4.95-1.75-4.95-4.484 0-2.68 2.038-4.252 5.674-4.457l3.856-.233v-1.285c0-1.49-.985-2.324-2.817-2.324-1.558 0-2.625.56-2.939 1.586h-3.2c.274-2.612 2.749-4.28 6.303-4.28 3.842 0 6.002 1.86 6.002 5.018V128h-3.267v-2.05h-.233c-.834 1.448-2.474 2.296-4.43 2.296zm.998-2.611c2.05 0 3.582-1.34 3.582-3.117V121.3l-3.377.232c-1.9.123-2.79.82-2.79 2.065 0 1.285 1.08 2.037 2.585 2.037zm14.765-6.453l5.524-6.125h3.937l-5.96 6.412 6.37 8.531h-4.101l-4.799-6.453-1.203 1.203V128h-3.39v-20.727h3.39v11.909h.232zm16.106 9.064c-2.885 0-4.95-1.75-4.95-4.484 0-2.68 2.038-4.252 5.674-4.457l3.856-.233v-1.285c0-1.49-.984-2.324-2.816-2.324-1.559 0-2.625.56-2.94 1.586h-3.2c.274-2.612 2.749-4.28 6.304-4.28 3.841 0 6.002 1.86 6.002 5.018V128h-3.268v-2.05h-.232c-.834 1.448-2.475 2.296-4.43 2.296zm.998-2.611c2.05 0 3.582-1.34 3.582-3.117V121.3l-3.377.232c-1.9.123-2.79.82-2.79 2.065 0 1.285 1.081 2.037 2.585 2.037zm12.086-16.242h3.377v3.76h3.199v2.638h-3.2v7.438c0 1.49.63 2.16 2.052 2.16.478 0 .738-.028 1.148-.069v2.598a9.691 9.691 0 01-1.777.15c-3.432 0-4.8-1.148-4.8-4.033v-8.244h-2.364v-2.639h2.365v-3.76zm14.082 18.853c-2.885 0-4.95-1.75-4.95-4.484 0-2.68 2.038-4.252 5.674-4.457l3.856-.233v-1.285c0-1.49-.984-2.324-2.816-2.324-1.559 0-2.625.56-2.94 1.586h-3.2c.274-2.612 2.749-4.28 6.304-4.28 3.841 0 6.002 1.86 6.002 5.018V128h-3.268v-2.05h-.232c-.834 1.448-2.475 2.296-4.43 2.296zm.998-2.611c2.05 0 3.582-1.34 3.582-3.117V121.3l-3.377.232c-1.9.123-2.789.82-2.789 2.065 0 1.285 1.08 2.037 2.584 2.037z" fill-opacity=".5"/>
    </g>
</svg>