<svg viewBox="0 0 50 50" xmlns="http://www.w3.org/2000/svg">
    <path d="M19 19.33c0-1.34.2-2.58.58-3.7.39-1.13.9-2.06 1.56-2.81a9.63 9.63 0 012.08-1.83c.73-.47 1.5-.8 2.28-.99l.79 3.76c-.88.31-1.64.92-2.27 1.84a6.44 6.44 0 00-.96 3.73c0 1.83.48 3.27 1.45 4.32A4.57 4.57 0 0028 25.24V29c-2.6 0-4.74-.91-6.45-2.74A9.76 9.76 0 0119 19.33zm9-5.57V10c2.58 0 4.72.91 6.43 2.74A9.73 9.73 0 0137 19.67c0 1.08-.13 2.1-.38 3.04-.26.94-.6 1.75-1.02 2.43a9.02 9.02 0 01-3.26 3.1c-.6.33-1.23.58-1.89.76l-.75-3.73c.39-.15.76-.36 1.12-.64a5.12 5.12 0 001.83-2.72c.2-.67.3-1.42.3-2.24 0-1.82-.49-3.25-1.46-4.31a4.58 4.58 0 00-3.49-1.6zm-5 16.39L17.06 41 14 38.78 19.95 28 23 30.15z" fill="#fff" fill-rule="evenodd"/>
</svg>