<svg xmlns="http://www.w3.org/2000/svg" viewBox="0 0 211 55">
  <title>ZA GRAD</title>
  <path d="M0 35.6v-5.1h25v5.1H0zM0 6.2V1.1h25v5.1H0zm1.7 21.9L15.8 8.6h7.4L9 28.1H1.7zM28 35L39.4 3.3l3 6.2-5.3 16.6-3.5 10.3-5.7-1.3zm11.3-7l1.3-4.9h9.1L42 1.1h5.7l12.3 34-5.8 1.3-2.8-8.4h-12zm40.7-.3c-1.5-2.8-2.2-6-2.2-9.4 0-3.6.7-6.7 2.2-9.5a16 16 0 016.3-6.5C88.9.8 92 0 95.7 0a30.5 30.5 0 019.4 1.4l1.4.5-.9 5.2a55.6 55.6 0 00-5.3-1.3c-1.7-.3-3.3-.4-4.6-.4a11 11 0 00-8.5 3.5 13.6 13.6 0 00-3.2 9.5c0 3.8 1 7 3.1 9.3 2.2 2.4 5 3.6 8.6 3.6a25 25 0 002.7-.1l.5-.1.4 5.4-3.6.2c-3.6 0-6.8-.8-9.5-2.4a16 16 0 01-6.3-6.5zm13.3-7.3v-4.8h14v20h-5.6V20.4h-8.4zm22.7 15.1V8.3h5.8v27.3h-5.8zm0-29.7V1h11.3c1.7 0 3.3.3 4.8.9a10 10 0 015.8 6c.5 1.3.7 2.6.7 4a10.5 10.5 0 01-6 9.5l7.9 13-5.3 2-8.4-13.8h-2.6V18h3.1c1.9 0 3.3-.5 4.2-1.6a6.8 6.8 0 001.3-4.4c0-.8-.1-1.6-.3-2.3a6 6 0 00-.9-2 4 4 0 00-1.7-1.3c-.7-.4-1.6-.5-2.6-.5h-11.3zM143.7 35l11.5-31.8 3.1 6.2-5.4 16.6-3.5 10.3-5.7-1.3zm11.3-7l1.3-4.9h9.1l-7.7-22.1h5.7l12.3 34-5.8 1.3-2.8-8.4h-12zm27.5 7.5v-27h5.8v27h-5.8zm0-29.4V1.1h10c5.5 0 9.9 1.5 13 4.6 3 3 4.6 7.3 4.6 12.7a17 17 0 01-4.6 12.6c-3.1 3.1-7.4 4.6-13 4.6h-1.8v-5.1h2.2c3.5 0 6.3-1 8.2-3.2 2-2.2 3-5.2 3-9 0-3.7-1-6.7-3-8.9-2-2.1-4.7-3.2-8.2-3.2h-10.4z" fill="#FFF" fill-rule="evenodd"/>
</svg>