<svg xmlns="http://www.w3.org/2000/svg" viewBox="250 100 610 650">
  <title>Zagreb je NAŠ!</title>
  <g clip-path="url(#clipPath3767)" transform="matrix(1.33333 0 0 -1.33333 0 816)"><path d="M630.4 311.7a8.4 8.4 0 11-16.9 0 8.4 8.4 0 0117 0m-2.7 33a8.4 8.4 0 11-16.7-2.6 8.4 8.4 0 0116.7 2.7m-7.7 32.2a8.4 8.4 0 11-16-5.2 8.4 8.4 0 0116 5.2m-12.7 30.6a8.4 8.4 0 11-15-7.7 8.4 8.4 0 0115 7.7m-17.3 28.2a8.4 8.4 0 11-13.7-9.9 8.4 8.4 0 0113.7 10m-22.7-176.7l5.1 36.5-3 3.5H554l-3-3.6 5-36.4zm1.2 189.9a8.4 8.4 0 11-12 12 8.4 8.4 0 0112-12m-16-64c-3.5 0-7.8-2.5-9.8-6h-.2v26l-23.3-1v-12l4-.5V339a53.3 53.3 0 0119.9-4.5c13.8 0 25 7.4 25 25.5 0 15.5-3.6 25.2-15.5 25.2m-4.1-26.1c0-6.8-1-11.3-4.8-11.3-.6 0-.8 0-1.2.3v21c.4.3.9.5 1.6.5 3.3 0 4.4-3.7 4.4-10.5m-3.3 111.8a8.4 8.4 0 11-13.7 9.9 8.4 8.4 0 0113.7-10m-26.5 17.8a8.4 8.4 0 11-15 7.7 8.4 8.4 0 0115-7.7m-20-103.4c-14.7 0-22.6-9.8-22.6-26.4 0-16.4 8.5-24.3 22.6-24.3 7.8 0 15.6 3.4 19.7 8.8l-4.7 10.3c-3.7-2.8-6.6-4.3-10.6-4.3-3.3 0-5.8 1.8-7 7H518v6.3c0 13.5-4.9 22.6-19 22.6m1.4-21h-4.5c0 6 .2 8 2.2 8s2.3-1 2.3-6.7zM490 501.9a8.4 8.4 0 11-16 5.2 8.4 8.4 0 0116-5.2m-32-140.2h15.5v21.7c-2.4 1-4.8 1.4-7 1.4-5.9 0-10.4-3.5-12.7-10.1h-.2v9.7l-22-1.1v-11.9l4.2-.5v-23.6l-3.6-.3v-11.7H461V347l-6 .3v20.1c.9.6 1.8.6 3 .6zm1.3 148.9a8.4 8.4 0 11-16.6 2.6 8.4 8.4 0 0116.6-2.6M426 285.9l4.6.2v13h-29.4v-13l6.5-.1v-16.6l-18.5 29.8h-22.5v-13l5.4-.3v-38.7l-5.4-.2v-13h29.8v13l-6 .2v18.5l19.3-31.7H426zm-1.3 84.4l4-1v14.5H413c-2.6.9-5.4 1.3-8.4 1.3-11.7 0-20.8-6.3-20.8-18.7 0-7.3 4.8-12 10.3-14.3v-.6c-6.2-1.2-9.6-4.8-9.6-8.6 0-4.3 2.2-6.6 5.5-8-5-2.1-8-5.4-8-10.1 0-8.2 9.3-12 22.2-12 11.6 0 23.6 6.6 23.6 17.8 0 6.1-3 13-12.8 14.2l-10.9 1.5c-2.9.4-3.5.6-3.5 2 0 .8.5 1.5 1.4 1.8h1.4c9.5 0 21.5 5.5 21.5 18l-.2 2.2m-25.9-38c2.3-.5 4.9-1 8.2-1.5 4-.7 4.4-1.3 4.4-3 0-2.3-3.6-3.3-7.7-3.3-4 0-6.4 1.3-6.4 3.7 0 1.2.2 2.6 1.5 4.1m7.6 34.5c0-4.5-.6-5.5-2-5.5-1.9 0-2.1 1.4-2.1 5.7 0 5.3 0 7.5 2 7.5 2.1 0 2.1-2.4 2.1-7.7m21.3 147.6a8.4 8.4 0 11-16.8 0 8.4 8.4 0 0116.8 0m-31.8-1.2a8.4 8.4 0 11-16.6-2.6 8.4 8.4 0 0116.6 2.6m-13.7-172.4l-3.2 8.5c-.6-.7-1-.9-1.4-.9-1.3 0-1.1.9-1.1 4.4v19c0 9.3-9.4 13.3-19.7 13.3-7 0-12.5-1.5-18.3-3.7v-17.1h15v8.4c.7.3 1.5.4 2 .4 1.6 0 2-1 2-3.5v-9.3c-1.3.2-2.8.2-4.3.2-8.5 0-18.2-3.3-18.2-14.2 0-7.3 5-12 11.8-12 4.8 0 9.4 1.4 12 7.8h.3c1.2-5.9 5.2-7.8 10.1-7.8 5.9 0 10.4 2.6 13 6.5m-24.4 5c-.3-.3-1-.5-1.5-.5-1.7 0-2.8 1-2.8 3.8 0 2 .8 4.5 4 3.8zm6.9 161.3a8.4 8.4 0 11-16-5.2 8.4 8.4 0 0116 5.2m-29.9-11a8.4 8.4 0 11-15-7.6 8.4 8.4 0 0115 7.7M307 480.7a8.4 8.4 0 11-13.6-10 8.4 8.4 0 0113.6 10M282 449a8.4 8.4 0 11-12 12 8.4 8.4 0 0112-12m-19.8-251.5a8.4 8.4 0 11-13.7-10 8.4 8.4 0 0113.7 10m0 228.3a8.4 8.4 0 11-13.7 10 8.4 8.4 0 0113.7-10m-19.6-14.6a8.4 8.4 0 11-7.7-15 8.4 8.4 0 017.7 15m-13.4-28.9a8.4 8.4 0 11-5.2-16 8.4 8.4 0 015.2 16m-18.4-37.6a8.4 8.4 0 1116.7-2.7 8.4 8.4 0 01-16.7 2.7m5.8-24.6a8.4 8.4 0 110-16.9 8.4 8.4 0 010 16.9m-5.8-41.5a8.4 8.4 0 1116.7 2.7 8.4 8.4 0 01-16.7-2.7m7.7-32.2a8.4 8.4 0 1116 5.2 8.4 8.4 0 01-16-5.2m12.7-30.6a8.4 8.4 0 1115 7.7 8.4 8.4 0 01-15-7.7m38.8-41.5a8.4 8.4 0 1112-12 8.4 8.4 0 01-12 12m23.4-21.7a8.4 8.4 0 1113.6-9.9 8.4 8.4 0 01-13.6 10m-15.8 145.4c0-7 5.6-10.1 10-10.1 4.3 0 10 3.2 10 10a10 10 0 01-10 10.1 10 10 0 01-10-10m.7-28.6v-32c0-6.8-.7-10.7-7.2-15.4l7.6-11c9.7 2 18.8 9.2 18.8 24.4V283l-23.3-1.1V270zm35 87.7v-7.7h-9.6l26.7 36.5v14.4h-48.1v-22h17.6v7.8h7.8l-26.2-35.6v-15.4h49.3v22zm-10.3-100c0-16.3 8.6-24.2 22.6-24.2 7.9 0 15.7 3.4 19.8 8.8l-4.8 10.3c-3.7-2.8-6.6-4.3-10.6-4.3-3.2 0-5.8 1.7-6.9 7h21.6v6.3c0 13.5-4.8 22.6-19 22.6-14.8 0-22.7-9.9-22.7-26.4m19.7 5.4c0 6 .2 8 2.2 8 1.9 0 2.2-1 2.2-6.7v-1.3zm-3-127.8a8.4 8.4 0 1115.1-7.7 8.4 8.4 0 01-15 7.7m28.9-13.4a8.4 8.4 0 1116-5.2 8.4 8.4 0 01-16 5.2m30.6-8.7a8.4 8.4 0 1116.6-2.6 8.4 8.4 0 01-16.6 2.6m31.6-3.8a8.4 8.4 0 1116.8 0 8.4 8.4 0 01-16.8 0m26.7 138h-3.9v-13H460v13l-5.6.3 1.2 5.5h12.9l1.2-5.8h-3.7v-13h28.4v13l-4 .1-14 52h-24zm20.7 18.4l3.7 17 3.7-17zm-15.6-155.2a8.4 8.4 0 1116.6 2.6 8.4 8.4 0 01-16.6-2.6m31.2 6.1a8.4 8.4 0 1116 5.2 8.4 8.4 0 01-16-5.2m31.7 197.9l16.7-12.6 17 13.2-3.8 7.7-12.5-5.2-13 4.9zm19.6-62.2c0-2-1.4-4.2-4.4-4.2-2.3 0-3.5.4-4.7.8v7.7h-16.7v-20.6c4-1.8 16-3 21.8-3 15.8 0 24.1 7 24.1 20.2 0 10.3-5.3 16.4-17.5 21.7-6.5 2.9-10.4 3.3-10.4 7.3 0 2.2 1.8 3.1 3.5 3.1a5 5 0 003-.6v-7h17.9v19.6c-4.7 2-11.6 3.4-20.4 3.4-11.8 0-23.2-6.4-23.2-19.9 0-10.7 4.8-15 13.2-19.6 6.2-3.4 13.8-4.8 13.8-9m-21.4-124.7a8.4 8.4 0 1115 7.7 8.4 8.4 0 01-15-7.7m27.8 15.5a8.4 8.4 0 1113.7 10 8.4 8.4 0 01-13.7-10m20.3 99.9a9.8 9.8 0 019.8-10.3c5 0 9.8 3.8 9.8 10.3a10 10 0 01-9.8 10.4c-5 0-9.8-4-9.8-10.4m4.7-68.3a8.4 8.4 0 1112-12 8.4 8.4 0 01-12 12m19.8 23.2a8.4 8.4 0 1113.7-10 8.4 8.4 0 01-13.7 10m19.7 14.6a8.4 8.4 0 117.6 15 8.4 8.4 0 01-7.6-15m13.3 28.9a8.4 8.4 0 115.3 16 8.4 8.4 0 01-5.3-16m18.4 37.6a8.4 8.4 0 11-16.7 2.7 8.4 8.4 0 0116.7-2.7" fill="#ffffff"/></g>
</svg>